<svg width="32" height="32" viewBox="0 0 32 32" xmlns="http://www.w3.org/2000/svg">
<g clip-path="url(#clip0_53_240)">
<path d="M7.99999 25.3333C7.99999 26.8 9.19999 28 10.6667 28H21.3333C22.8 28 24 26.8 24 25.3333V9.33333H7.99999V25.3333ZM12.2267 16.7867C11.7067 16.2667 11.7067 15.4267 12.2267 14.9067C12.7467 14.3867 13.5867 14.3867 14.1067 14.9067L16 16.7867L17.88 14.9067C18.4 14.3867 19.24 14.3867 19.76 14.9067C20.28 15.4267 20.28 16.2667 19.76 16.7867L17.88 18.6667L19.76 20.5467C20.28 21.0667 20.28 21.9067 19.76 22.4267C19.24 22.9467 18.4 22.9467 17.88 22.4267L16 20.5467L14.12 22.4267C13.6 22.9467 12.76 22.9467 12.24 22.4267C11.72 21.9067 11.72 21.0667 12.24 20.5467L14.12 18.6667L12.2267 16.7867ZM24 5.33333H20.6667L19.72 4.38667C19.48 4.14667 19.1333 4 18.7867 4H13.2133C12.8667 4 12.52 4.14667 12.28 4.38667L11.3333 5.33333H7.99999C7.26666 5.33333 6.66666 5.93333 6.66666 6.66667C6.66666 7.4 7.26666 8 7.99999 8H24C24.7333 8 25.3333 7.4 25.3333 6.66667C25.3333 5.93333 24.7333 5.33333 24 5.33333Z" />
</g>
<defs>
<clipPath id="clip0_53_240">
<rect width="32" height="32" />
</clipPath>
</defs>
</svg>
